Coordinates
version=1
nRows=18
nColumns=22
inDegrees=yes

Units are S.I. units (second, meters, Newtons, ...)
If the header above contains a line with 'inDegrees', this indicates whether rotational values are in degrees (yes) or radians (no).

endheader
time	pelvis_tilt	pelvis_list	pelvis_rotation	pelvis_tx	pelvis_ty	pelvis_tz	hip_flexion_r	hip_adduction_r	hip_rotation_r	knee_angle_r	ankle_angle_r	subtalar_angle_r	hip_flexion_l	hip_adduction_l	hip_rotation_l	knee_angle_l	ankle_angle_l	subtalar_angle_l	lumbar_extension	lumbar_bending	lumbar_rotation
      0.01000000	    -15.85579202	     -0.64517289	     -7.87241521	     -0.70805756	      0.97626420	      0.22196342	     22.11321915	      4.75949963	     -4.08120579	    -15.87834490	     14.85611117	     -7.78192048	     23.92987950	     -2.38125088	     -5.75482699	    -18.29854594	     17.11618956	     -3.07356073	      9.22903546	      3.45332843	      3.46952128
      0.02000000	    -15.85723266	     -0.64508888	     -7.87297604	     -0.70804486	      0.97626220	      0.22196146	     22.11198904	      4.76008164	     -4.08141036	    -15.87904085	     14.85596254	     -7.78189805	     23.93070463	     -2.38082422	     -5.75490419	    -18.29787948	     17.11612454	     -3.07345048	      9.22825263	      3.45314448	      3.46934127
      0.03000000	    -15.86100835	     -0.64444871	     -7.87870474	     -0.70806510	      0.97625880	      0.22197530	     22.11584711	      4.76291175	     -4.08350343	    -15.87862339	     14.85362397	     -7.78162425	     23.93256968	     -2.38223351	     -5.75618319	    -18.29073629	     17.11418014	     -3.07131675	      9.21987734	      3.45163627	      3.46529954
      0.04000000	    -15.86244409	     -0.64583877	     -7.88668808	     -0.70805772	      0.97626515	      0.22198708	     22.12193506	      4.76685432	     -4.08570061	    -15.89242932	     14.83769298	     -7.78016597	     23.92232321	     -2.38566815	     -5.76468831	    -18.26997489	     17.10068388	     -3.05818930	      9.21622095	      3.45673923	      3.45239003
      0.05000000	    -15.86543903	     -0.64488294	     -7.88993963	     -0.70806732	      0.97626409	      0.22199382	     22.12346690	      4.76805322	     -4.08713395	    -15.88981040	     14.83669954	     -7.77996991	     23.92416049	     -2.38533602	     -5.76501691	    -18.26721015	     17.09986023	     -3.05660841	      9.20985931	      3.45515791	      3.45181642
      0.06000000	    -15.86837133	     -0.64393563	     -7.89360377	     -0.70807422	      0.97626395	      0.22200252	     22.12529264	      4.76886763	     -4.08836835	    -15.88763108	     14.83530247	     -7.77969985	     23.92505969	     -2.38577783	     -5.76577882	    -18.26379965	     17.09933008	     -3.05525087	      9.20382113	      3.45379408	      3.45040018
      0.07000000	    -15.87101465	     -0.64295173	     -7.89727125	     -0.70808549	      0.97626592	      0.22201270	     22.12752909	      4.76951529	     -4.08939611	    -15.88533128	     14.83354462	     -7.77931190	     23.92544544	     -2.38651329	     -5.76737497	    -18.25977470	     17.09957554	     -3.05431758	      9.19781165	      3.45262538	      3.44851900
      0.08000000	    -15.87351678	     -0.64177880	     -7.90116086	     -0.70809757	      0.97626893	      0.22202412	     22.12981749	      4.77002318	     -4.09022807	    -15.88265501	     14.83135135	     -7.77873822	     23.92569793	     -2.38754677	     -5.77034133	    -18.25512919	     17.10108404	     -3.05402317	      9.19156794	      3.45153521	      3.44622167
      0.09000000	    -15.87551891	     -0.64048822	     -7.90520330	     -0.70811145	      0.97627077	      0.22203580	     22.13159658	      4.77011851	     -4.09060120	    -15.87976262	     14.82876024	     -7.77794323	     23.92556502	     -2.38894551	     -5.77507993	    -18.25063724	     17.10413331	     -3.05463825	      9.18597473	      3.45077505	      3.44369033
      0.10000000	    -15.87712036	     -0.63863265	     -7.91121844	     -0.70812488	      0.97627379	      0.22205098	     22.13290347	      4.77064816	     -4.09023831	    -15.87583635	     14.82498605	     -7.77658387	     23.92501399	     -2.39040512	     -5.78382213	    -18.24580772	     17.10999745	     -3.05683288	      9.17976816	      3.45049171	      3.44022401
      0.11000000	    -15.87050934	     -0.63726642	     -7.92613052	     -0.70809870	      0.97628880	      0.22208520	     22.12177024	      4.77429568	     -4.07408638	    -15.87090796	     14.80638565	     -7.76836389	     23.91244043	     -2.39904805	     -5.83279962	    -18.24135327	     17.14000319	     -3.07501005	      9.17401596	      3.45258915	      3.43815943
      0.12000000	    -15.87138296	     -0.63565755	     -7.93202184	     -0.70811946	      0.97628964	      0.22209852	     22.12318082	      4.77501819	     -4.07354088	    -15.86746906	     14.80686031	     -7.76789233	     23.91402968	     -2.39972481	     -5.83290018	    -18.24157864	     17.14008884	     -3.07641512	      9.16730098	      3.45320603	      3.43942957
      0.13000000	    -15.87124857	     -0.63379409	     -7.93927350	     -0.70813344	      0.97629291	      0.22211169	     22.12330166	      4.77532985	     -4.07161482	    -15.86528748	     14.80692082	     -7.76723690	     23.91477238	     -2.40086938	     -5.83436278	    -18.24325468	     17.14043459	     -3.07839827	      9.16225048	      3.45469294	      3.43961666
      0.14000000	    -15.87007148	     -0.63183702	     -7.94867375	     -0.70814626	      0.97629529	      0.22212846	     22.12294376	      4.77650582	     -4.06717522	    -15.86379029	     14.80649989	     -7.76617561	     23.91474847	     -2.40211606	     -5.83792937	    -18.24685424	     17.14079571	     -3.08135435	      9.15670857	      3.45677480	      3.43910780
      0.15000000	    -15.85706849	     -0.63400169	     -7.96992524	     -0.70817211	      0.97631569	      0.22217535	     22.11099673	      4.78827889	     -4.02290849	    -15.86669823	     14.80088097	     -7.75734922	     23.90826793	     -2.41586686	     -5.87594790	    -18.26408673	     17.14248894	     -3.10224955	      9.13323870	      3.46225483	      3.45117909
      0.16000000	    -15.85724063	     -0.63106129	     -7.97855801	     -0.70817805	      0.97631806	      0.22219246	     22.11080977	      4.78842604	     -4.02454573	    -15.86356536	     14.80113582	     -7.75693779	     23.90773820	     -2.41517620	     -5.87534419	    -18.26416591	     17.14259989	     -3.10275530	      9.13186299	      3.46353611	      3.45093552
      0.17000000	    -15.85704542	     -0.62877323	     -7.98560482	     -0.70818644	      0.97632065	      0.22220716	     22.11056133	      4.78781504	     -4.02464528	    -15.86157720	     14.80104430	     -7.75646740	     23.90734436	     -2.41558582	     -5.87530585	    -18.26465077	     17.14223367	     -3.10301611	      9.13004445	      3.46438745	      3.45055356
      0.18000000	    -15.85637010	     -0.62607386	     -7.99332003	     -0.70819817	      0.97632438	      0.22222531	     22.11030809	      4.78796068	     -4.02392678	    -15.85991608	     14.80065137	     -7.75584916	     23.90715106	     -2.41565373	     -5.87605956	    -18.26563031	     17.14145969	     -3.10303408	      9.12744101	      3.46514582	      3.44967073
